<svg xmlns="http://www.w3.org/2000/svg" xmlns:xlink="http://www.w3.org/1999/xlink" width="106" zoomAndPan="magnify" viewBox="0 0 79.5 30.000001" height="40" preserveAspectRatio="xMidYMid meet" version="1.0"><defs><g/><clipPath id="9d973f5f17"><path d="M 1.039062 0 L 25.71875 0 L 25.71875 29.03125 L 1.039062 29.03125 Z M 1.039062 0 " clip-rule="nonzero"/></clipPath><clipPath id="cbdd1c029d"><path d="M 66 14 L 77.976562 14 L 77.976562 25 L 66 25 Z M 66 14 " clip-rule="nonzero"/></clipPath></defs><g clip-path="url(#9d973f5f17)"><path fill="#ff3131" d="M 19.476562 9.691406 L 17.828125 9.691406 L 18.808594 8.558594 C 19.03125 8.613281 19.265625 8.640625 19.507812 8.640625 C 21.144531 8.640625 22.480469 7.3125 22.492188 5.675781 C 22.503906 4.027344 21.167969 2.679688 19.507812 2.671875 C 17.871094 2.671875 16.53125 4.003906 16.523438 5.640625 C 16.519531 6.0625 16.605469 6.480469 16.773438 6.863281 L 14.363281 9.691406 L 13.308594 9.691406 L 10.300781 5.972656 C 10.679688 5.359375 10.886719 4.652344 10.894531 3.929688 C 10.902344 2.882812 10.5 1.902344 9.769531 1.160156 C 9.035156 0.417969 8.058594 0.0078125 6.992188 0 C 4.855469 0 3.101562 1.742188 3.089844 3.882812 C 3.082031 4.925781 3.480469 5.90625 4.214844 6.652344 C 4.945312 7.394531 5.925781 7.804688 6.992188 7.8125 C 7.269531 7.8125 7.550781 7.785156 7.816406 7.726562 L 9.398438 9.699219 L 7.382812 9.699219 C 4.523438 9.691406 1.042969 10.554688 1.042969 16.453125 L 1.042969 22.691406 C 1.042969 26.179688 3.894531 29.03125 7.382812 29.03125 L 19.476562 29.03125 C 22.960938 29.03125 25.816406 26.179688 25.816406 22.691406 L 25.816406 16.453125 C 25.816406 11.210938 22.332031 9.691406 19.476562 9.691406 Z M 20.113281 25.367188 L 6.75 25.367188 C 5.765625 25.367188 4.9375 24.539062 4.9375 23.558594 L 4.945312 16.453125 L 4.945312 15.371094 C 4.980469 14.417969 5.789062 13.625 6.75 13.625 L 20.113281 13.625 C 21.09375 13.625 21.925781 14.453125 21.925781 15.4375 L 21.917969 22.542969 L 21.925781 22.542969 L 21.925781 23.558594 C 21.925781 24.539062 21.09375 25.367188 20.113281 25.367188 Z M 20.113281 25.367188 " fill-opacity="1" fill-rule="nonzero"/></g><path fill="#ffffff" d="M 10.734375 21.597656 C 10.726562 20.449219 10.71875 18.558594 10.710938 17.410156 C 10.703125 16.257812 11.566406 15.78125 12.550781 16.351562 C 13.535156 16.921875 15.179688 17.855469 16.164062 18.429688 C 17.144531 19 17.167969 19.941406 16.1875 20.523438 C 15.207031 21.105469 13.554688 22.054688 12.574219 22.632812 C 11.597656 23.21875 10.738281 22.75 10.734375 21.597656 Z M 10.734375 21.597656 " fill-opacity="1" fill-rule="nonzero"/><g fill="#ffffff" fill-opacity="1"><g transform="translate(27.862571, 24.338709)"><g><path d="M 6.484375 -4.34375 L 9.359375 -12.875 L 12.75 -12.875 L 7.96875 0 L 4.96875 0 L 0.1875 -12.875 L 3.609375 -12.875 Z M 6.484375 -4.34375 "/></g></g></g><g fill="#ffffff" fill-opacity="1"><g transform="translate(40.068963, 24.338709)"><g><path d="M 4.234375 0 L 1.15625 0 L 1.15625 -9.5625 L 4.234375 -9.5625 Z M 4.265625 -11.03125 L 1.09375 -11.03125 L 1.09375 -13.5 L 4.265625 -13.5 Z M 4.265625 -11.03125 "/></g></g></g><g fill="#ffffff" fill-opacity="1"><g transform="translate(44.756565, 24.338709)"><g><path d="M 6.84375 -9.796875 C 7.59375 -9.796875 8.253906 -9.617188 8.828125 -9.265625 C 9.410156 -8.921875 9.867188 -8.441406 10.203125 -7.828125 C 10.535156 -7.222656 10.703125 -6.523438 10.703125 -5.734375 L 10.703125 0 L 7.625 0 L 7.625 -5.09375 C 7.625 -5.695312 7.476562 -6.175781 7.1875 -6.53125 C 6.90625 -6.882812 6.503906 -7.0625 5.984375 -7.0625 C 5.460938 -7.0625 5.039062 -6.878906 4.71875 -6.515625 C 4.394531 -6.160156 4.234375 -5.6875 4.234375 -5.09375 L 4.234375 0 L 1.15625 0 L 1.15625 -9.5625 L 4.015625 -9.5625 L 4.015625 -8.640625 C 4.773438 -9.410156 5.71875 -9.796875 6.84375 -9.796875 Z M 6.84375 -9.796875 "/></g></g></g><g fill="#ffffff" fill-opacity="1"><g transform="translate(55.823192, 24.338709)"><g><path d="M 5.671875 -9.796875 C 6.578125 -9.796875 7.414062 -9.585938 8.1875 -9.171875 C 8.96875 -8.753906 9.59375 -8.171875 10.0625 -7.421875 C 10.539062 -6.671875 10.78125 -5.816406 10.78125 -4.859375 C 10.78125 -4.578125 10.75 -4.25 10.6875 -3.875 L 3.59375 -3.875 C 3.707031 -3.300781 3.945312 -2.851562 4.3125 -2.53125 C 4.6875 -2.21875 5.148438 -2.0625 5.703125 -2.0625 C 6.140625 -2.0625 6.507812 -2.140625 6.8125 -2.296875 C 7.113281 -2.453125 7.367188 -2.691406 7.578125 -3.015625 L 10.5 -3.015625 C 10.144531 -2.046875 9.550781 -1.257812 8.71875 -0.65625 C 7.882812 -0.0625 6.867188 0.234375 5.671875 0.234375 C 4.742188 0.234375 3.890625 0.0234375 3.109375 -0.390625 C 2.328125 -0.804688 1.695312 -1.394531 1.21875 -2.15625 C 0.75 -2.914062 0.515625 -3.789062 0.515625 -4.78125 C 0.515625 -5.769531 0.75 -6.644531 1.21875 -7.40625 C 1.695312 -8.164062 2.328125 -8.753906 3.109375 -9.171875 C 3.890625 -9.585938 4.742188 -9.796875 5.671875 -9.796875 Z M 5.671875 -7.484375 C 5.148438 -7.484375 4.707031 -7.335938 4.34375 -7.046875 C 3.988281 -6.765625 3.742188 -6.347656 3.609375 -5.796875 L 7.765625 -5.796875 C 7.660156 -6.296875 7.429688 -6.703125 7.078125 -7.015625 C 6.722656 -7.328125 6.253906 -7.484375 5.671875 -7.484375 Z M 5.671875 -7.484375 "/></g></g></g><g clip-path="url(#cbdd1c029d)"><g fill="#ffffff" fill-opacity="1"><g transform="translate(66.393462, 24.338709)"><g><path d="M 5.828125 0.234375 C 4.910156 0.234375 4.039062 0.0351562 3.21875 -0.359375 C 2.40625 -0.765625 1.75 -1.347656 1.25 -2.109375 C 0.757812 -2.867188 0.515625 -3.757812 0.515625 -4.78125 C 0.515625 -5.789062 0.757812 -6.671875 1.25 -7.421875 C 1.75 -8.179688 2.40625 -8.765625 3.21875 -9.171875 C 4.039062 -9.585938 4.910156 -9.796875 5.828125 -9.796875 C 6.742188 -9.796875 7.609375 -9.585938 8.421875 -9.171875 C 9.234375 -8.765625 9.882812 -8.179688 10.375 -7.421875 C 10.875 -6.671875 11.125 -5.789062 11.125 -4.78125 C 11.125 -3.757812 10.875 -2.867188 10.375 -2.109375 C 9.882812 -1.347656 9.234375 -0.765625 8.421875 -0.359375 C 7.609375 0.0351562 6.742188 0.234375 5.828125 0.234375 Z M 5.828125 -2.5 C 6.492188 -2.5 7.035156 -2.710938 7.453125 -3.140625 C 7.878906 -3.566406 8.09375 -4.113281 8.09375 -4.78125 C 8.09375 -5.425781 7.878906 -5.96875 7.453125 -6.40625 C 7.035156 -6.84375 6.492188 -7.0625 5.828125 -7.0625 C 5.171875 -7.0625 4.628906 -6.84375 4.203125 -6.40625 C 3.773438 -5.96875 3.5625 -5.425781 3.5625 -4.78125 C 3.5625 -4.113281 3.773438 -3.566406 4.203125 -3.140625 C 4.628906 -2.710938 5.171875 -2.5 5.828125 -2.5 Z M 5.828125 -2.5 "/></g></g></g></g></svg>